<?xml version="1.0" encoding="iso-8859-1"?>
<!-- Uploaded to: SVG Repo, www.svgrepo.com, Generator: SVG Repo Mixer Tools -->
<svg height="800px" width="800px" version="1.1" id="Layer_1" xmlns="http://www.w3.org/2000/svg" xmlns:xlink="http://www.w3.org/1999/xlink" 
	 viewBox="0 0 512.001 512.001" xml:space="preserve">
<path style="fill:#D5F4FA;" d="M511.307,478.536l-60.831-241.023c-2.558-10.131-11.671-17.229-22.118-17.229h-67.562
	c-12.598,0-22.812,10.214-22.812,22.812h-163.95c0-12.598-10.214-22.812-22.812-22.812H83.644c-10.448,0-19.56,7.098-22.118,17.229
	L0.694,478.536c-1.722,6.819-0.201,14.052,4.123,19.601c4.322,5.549,10.962,8.793,17.995,8.793h466.376
	c7.034,0,13.673-3.244,17.995-8.793C511.508,492.588,513.029,485.356,511.307,478.536z"/>
<path style="fill:#C0FCFF;" d="M511.307,478.536l-60.831-241.023c-2.558-10.131-11.671-17.229-22.118-17.229h-67.562
	c-12.598,0-22.812,10.214-22.812,22.812h-81.978V506.93h233.184c7.034,0,13.673-3.244,17.995-8.793
	C511.508,492.588,513.029,485.356,511.307,478.536z"/>
<path style="fill:#DA3981;" d="M256.004,5.071c-82.098,0-148.891,66.802-148.891,148.912c0,136.828,130.841,223.927,136.41,227.567
	c3.791,2.477,8.136,3.717,12.481,3.717c4.345,0,8.691-1.239,12.483-3.718c0.722-0.473,17.983-11.826,39.854-32.198
	c44.05-41.035,96.558-108.239,96.558-195.368C404.898,71.873,338.103,5.071,256.004,5.071z M272.138,170.097
	c-4.258,4.243-10.128,6.676-16.136,6.676c-6.007,0-11.877-2.433-16.136-6.676c-4.241-4.258-6.676-10.128-6.676-16.136
	c0-6.007,2.435-11.877,6.676-16.12c4.26-4.258,10.128-6.691,16.136-6.691c6.007,0,11.879,2.433,16.136,6.691
	c4.243,4.243,6.676,10.113,6.676,16.12C278.814,159.969,276.382,165.839,272.138,170.097z"/>
<path style="fill:#A91E62;" d="M256.005,5.071V131.15c6.006,0.002,11.877,2.435,16.132,6.691c4.243,4.243,6.676,10.113,6.676,16.12
	c0,6.007-2.433,11.877-6.676,16.136c-4.257,4.243-10.127,6.675-16.132,6.676v208.494c4.345,0,8.69-1.239,12.481-3.718
	c0.722-0.473,17.983-11.826,39.854-32.198c44.05-41.035,96.558-108.239,96.558-195.368C404.898,71.873,338.105,5.072,256.005,5.071z
	"/>
</svg>